# xmcd CD database file
#
# Track frame offsets:
#	150
#	17812
#	38157
#	53600
#
# Disc length: 947 seconds
#
# Revision: 0
# Processed by: cddbd v1.5PL3 Copyright (c) Steve Scherf et al.
# Submitted via: CDex 1.51
#
DISCID=2703b104
DTITLE=GOMES THE HITMAN - 饒舌スタッカート
DYEAR=2001
DGENRE=Pop
TTITLE0=饒舌スタッカート
TTITLE1=拍手・手拍子
TTITLE2=ねじを巻く
TTITLE3=饒舌スタッカート(inst.)
EXTD=YEAR: 2001
EXTT0=
EXTT1=
EXTT2=
EXTT3=
PLAYORDER=
